<svg xmlns="http://www.w3.org/2000/svg" viewBox="0 0 320 180" width="100%" height="100%" preserveAspectRatio="xMidYMid slice" role="img" aria-label="Collection placeholder">
  <defs>
    <radialGradient id="cg-mixed0" cx="50%" cy="-6%" r="115%">
      <stop offset="0%" stop-color="#16210b"/>
      <stop offset="78%" stop-color="#080a0a"/>
    </radialGradient>
    <radialGradient id="cgl-mixed0" cx="50%" cy="40%" r="42%">
      <stop offset="0%" stop-color="#b4f33e" stop-opacity="0.20"/>
      <stop offset="60%" stop-color="#b4f33e" stop-opacity="0.05"/>
      <stop offset="100%" stop-color="#b4f33e" stop-opacity="0"/>
    </radialGradient>
    <linearGradient id="cgr-mixed0" x1="0" y1="0" x2="0" y2="1">
      <stop offset="52%" stop-color="#080a0a" stop-opacity="0"/>
      <stop offset="100%" stop-color="#080a0a" stop-opacity="0.6"/>
    </linearGradient>
    <pattern id="cd-mixed0" width="13" height="13" patternUnits="userSpaceOnUse">
      <circle cx="1" cy="1" r="1" fill="#b4f33e" opacity="0.05"/>
    </pattern>
  </defs>
  <rect width="320" height="180" fill="url(#cg-mixed0)"/>
  <rect width="320" height="180" fill="url(#cd-mixed0)"/>
  <rect width="320" height="180" fill="url(#cgl-mixed0)"/>
  <g transform="translate(136 50) scale(2)" fill="none" stroke="#b4f33e" stroke-width="1.6" stroke-linecap="round" stroke-linejoin="round" opacity="0.95"><path d="M12 3.5 14 9.5 20 12 14 14.5 12 20.5 10 14.5 4 12 10 9.5z"/><path d="M19 4.5l.7 1.8 1.8.7-1.8.7-.7 1.8-.7-1.8-1.8-.7 1.8-.7z"/></g>
  <rect width="320" height="180" fill="url(#cgr-mixed0)"/>
  <text x="160" y="134" text-anchor="middle" font-family="ui-monospace, SFMono-Regular, Menlo, monospace" font-size="11" letter-spacing="3" fill="#b4f33e" opacity="0.72">COLLECTION</text>
</svg>
